<svg width="1934" height="367" xmlns="http://www.w3.org/2000/svg" xmlns:xlink="http://www.w3.org/1999/xlink" overflow="hidden"><defs><clipPath id="clip0"><rect x="1031" y="710" width="1934" height="367"/></clipPath></defs><g clip-path="url(#clip0)" transform="translate(-1031 -710)"><path d="M1259.88 716.5C1297.23 716.5 1325.35 724.689 1344.23 741.067 1363.11 757.445 1373.03 779.305 1373.97 806.646L1313.88 809.286C1311.31 793.991 1305.79 782.993 1297.33 776.293 1288.87 769.593 1276.19 766.243 1259.27 766.243 1241.81 766.243 1228.14 769.83 1218.26 777.004 1211.9 781.606 1208.71 787.764 1208.71 795.48 1208.71 802.518 1211.69 808.541 1217.65 813.549 1225.23 819.911 1243.63 826.543 1272.87 833.447 1302.1 840.35 1323.73 847.49 1337.73 854.867 1351.74 862.243 1362.71 872.327 1370.62 885.118 1378.54 897.909 1382.5 913.712 1382.5 932.526 1382.5 949.581 1377.76 965.553 1368.29 980.442 1358.81 995.331 1345.42 1006.4 1328.09 1013.64 1310.77 1020.88 1289.18 1024.5 1263.33 1024.5 1225.7 1024.5 1196.8 1015.8 1176.64 998.41 1156.47 981.017 1144.43 955.672 1140.5 922.375L1198.97 916.69C1202.49 936.316 1209.63 950.732 1220.39 959.935 1231.15 969.14 1245.66 973.742 1263.94 973.742 1283.29 973.742 1297.87 969.647 1307.69 961.458 1317.5 953.269 1322.41 943.693 1322.41 932.729 1322.41 925.691 1320.34 919.701 1316.21 914.761 1312.09 909.82 1304.88 905.523 1294.59 901.868 1287.55 899.432 1271.52 895.1 1246.48 888.875 1214.26 880.888 1191.66 871.075 1178.67 859.435 1160.4 843.057 1151.26 823.092 1151.26 799.54 1151.26 784.381 1155.56 770.202 1164.15 757.005 1172.75 743.808 1185.13 733.758 1201.3 726.855 1217.48 719.951 1237 716.5 1259.88 716.5Z" stroke="#000000" stroke-width="4.58333" stroke-linecap="butt" stroke-linejoin="round" stroke-miterlimit="10" stroke-opacity="1" fill="#000000" fill-rule="evenodd" fill-opacity="1"/><path d="M1037.5 721.5 1097.5 721.5 1097.5 1019.5 1037.5 1019.5 1037.5 721.5Z" stroke="#000000" stroke-width="4.58333" stroke-linecap="butt" stroke-linejoin="round" stroke-miterlimit="10" stroke-opacity="1" fill="#000000" fill-rule="evenodd" fill-opacity="1"/><path d="M1419.5 721.5 1640.8 721.5 1640.8 771.912 1479.76 771.912 1479.76 837.976 1629.6 837.976 1629.6 888.185 1479.76 888.185 1479.76 969.291 1646.5 969.291 1646.5 1019.5 1419.5 1019.5 1419.5 721.5Z" stroke="#EB3D41" stroke-width="4.58333" stroke-linecap="butt" stroke-linejoin="round" stroke-miterlimit="10" stroke-opacity="1" fill="#EB3D41" fill-rule="evenodd" fill-opacity="1"/><path d="M1992 838 2027 838 2027 870 1992 870 1992 838Z" fill="#000000" fill-rule="evenodd" fill-opacity="1"/><path d="M2611 838 2646 838 2646 870 2611 870 2611 838Z" fill="#000000" fill-rule="evenodd" fill-opacity="1"/><path d="M1752.01 885C1759.82 885 1766.96 886.409 1773.43 889.226 1779.9 892.044 1784.8 895.639 1788.11 900.012 1791.43 904.385 1793.74 909.347 1795.05 914.898 1796.35 920.448 1797 928.396 1797 938.741L1797 1022 1761.58 1022 1761.58 953.626C1761.58 939.161 1760.83 929.805 1759.32 925.558 1757.8 921.311 1755.35 918.01 1751.94 915.655 1748.54 913.3 1744.44 912.122 1739.66 912.122 1733.52 912.122 1728.02 913.805 1723.14 917.169 1718.27 920.533 1714.93 924.99 1713.12 930.541 1711.32 936.091 1710.42 946.352 1710.42 961.322L1710.42 1022 1675 1022 1675 888.028 1707.89 888.028 1707.89 907.707C1719.57 892.569 1734.28 885 1752.01 885Z" fill="#000000" fill-rule="evenodd" fill-opacity="1"/><path d="M1882.22 885C1898.7 885 1912.29 892.261 1923 906.782L1923 888.022 1956 888.022 1956 1008.01C1956 1023.79 1954.7 1035.58 1952.11 1043.39 1949.52 1051.2 1945.88 1057.32 1941.19 1061.77 1936.51 1066.22 1930.26 1069.7 1922.43 1072.22 1914.61 1074.74 1904.72 1076 1892.76 1076 1870.17 1076 1854.15 1072.12 1844.7 1064.35 1835.24 1056.59 1830.52 1046.75 1830.52 1034.83 1830.52 1033.65 1830.56 1032.23 1830.64 1030.55L1870.92 1035.46C1871.59 1040.16 1873.14 1043.39 1875.57 1045.15 1878.91 1047.67 1884.18 1048.93 1891.38 1048.93 1900.58 1048.93 1907.48 1047.54 1912.08 1044.78 1915.18 1042.93 1917.52 1039.95 1919.11 1035.84 1920.2 1032.9 1920.74 1027.48 1920.74 1019.59L1920.74 1000.08C1910.2 1014.52 1896.9 1021.73 1880.84 1021.73 1862.93 1021.73 1848.75 1014.14 1838.3 998.945 1830.1 986.942 1826 972.001 1826 954.123 1826 931.711 1831.37 914.588 1842.12 902.753 1852.87 890.918 1866.24 885 1882.22 885ZM1891.25 912.07C1882.8 912.07 1875.84 915.365 1870.36 921.954 1864.88 928.543 1862.14 938.594 1862.14 952.108 1862.14 966.294 1864.88 976.681 1870.36 983.27 1875.84 989.859 1882.59 993.154 1890.62 993.154 1899.24 993.154 1906.52 989.775 1912.46 983.018 1918.4 976.261 1921.37 966.252 1921.37 952.99 1921.37 939.14 1918.52 928.857 1912.83 922.143 1907.15 915.427 1899.95 912.07 1891.25 912.07Z" fill="#000000" fill-rule="evenodd" fill-opacity="1"/><path d="M2141.01 885C2148.82 885 2155.96 886.409 2162.43 889.226 2168.9 892.044 2173.8 895.639 2177.11 900.012 2180.43 904.385 2182.74 909.347 2184.05 914.898 2185.35 920.448 2186 928.396 2186 938.741L2186 1022 2150.58 1022 2150.58 953.626C2150.58 939.161 2149.83 929.805 2148.32 925.558 2146.8 921.311 2144.35 918.01 2140.94 915.655 2137.54 913.3 2133.44 912.122 2128.65 912.122 2122.52 912.122 2117.02 913.805 2112.14 917.169 2107.27 920.533 2103.93 924.99 2102.12 930.541 2100.32 936.091 2099.42 946.352 2099.42 961.322L2099.42 1022 2064 1022 2064 888.028 2096.89 888.028 2096.89 907.707C2108.57 892.569 2123.28 885 2141.01 885Z" fill="#000000" fill-rule="evenodd" fill-opacity="1"/><path d="M2273.35 885C2293.25 885 2308.96 891.58 2320.47 904.739 2331.97 917.898 2337.47 938.057 2336.97 965.216L2248.28 965.216C2248.53 975.727 2251.39 983.904 2256.85 989.748 2262.31 995.592 2269.11 998.513 2277.26 998.513 2282.8 998.513 2287.46 997 2291.24 993.973 2295.02 990.946 2297.87 986.069 2299.81 979.342L2335.08 985.27C2330.54 998.219 2323.38 1008.08 2313.6 1014.85 2303.82 1021.62 2291.58 1025 2276.88 1025 2253.61 1025 2236.4 1017.39 2225.23 1002.17 2216.41 989.979 2212 974.592 2212 956.009 2212 933.811 2217.8 916.426 2229.38 903.856 2240.97 891.286 2255.63 885 2273.35 885ZM2275.49 912.117C2267.77 912.117 2261.38 914.934 2256.34 920.568 2251.3 926.201 2248.83 933.853 2248.91 943.523L2301.82 943.523C2301.57 933.264 2298.92 925.466 2293.88 920.126 2288.85 914.787 2282.71 912.117 2275.49 912.117Z" fill="#000000" fill-rule="evenodd" fill-opacity="1"/><path d="M2417.35 885C2437.25 885 2452.96 891.58 2464.47 904.739 2475.97 917.898 2481.47 938.057 2480.97 965.216L2392.28 965.216C2392.53 975.727 2395.39 983.904 2400.85 989.748 2406.31 995.592 2413.11 998.513 2421.26 998.513 2426.8 998.513 2431.46 997 2435.24 993.973 2439.02 990.946 2441.87 986.069 2443.81 979.342L2479.08 985.27C2474.54 998.219 2467.38 1008.08 2457.6 1014.85 2447.82 1021.62 2435.57 1025 2420.88 1025 2397.61 1025 2380.4 1017.39 2369.23 1002.17 2360.41 989.979 2356 974.592 2356 956.009 2356 933.811 2361.8 916.426 2373.38 903.856 2384.97 891.286 2399.63 885 2417.35 885ZM2419.49 912.117C2411.77 912.117 2405.38 914.934 2400.34 920.568 2395.3 926.201 2392.83 933.853 2392.91 943.523L2445.82 943.523C2445.57 933.264 2442.92 925.466 2437.88 920.126 2432.85 914.787 2426.71 912.117 2419.49 912.117Z" fill="#000000" fill-rule="evenodd" fill-opacity="1"/><path d="M2572.88 885C2580.88 885 2588.58 887.229 2596 891.686L2585.12 922.593C2579.21 918.724 2573.71 916.79 2568.63 916.79 2563.71 916.79 2559.54 918.157 2556.12 920.89 2552.71 923.623 2550.02 928.564 2548.06 935.713 2546.1 942.861 2545.12 957.831 2545.12 980.623L2545.12 1022 2510 1022 2510 888.028 2542.62 888.028 2542.62 907.077C2548.21 898.078 2553.23 892.149 2557.69 889.289 2562.15 886.43 2567.21 885 2572.88 885Z" fill="#000000" fill-rule="evenodd" fill-opacity="1"/><path d="M2760.01 885C2767.82 885 2774.96 886.409 2781.43 889.226 2787.9 892.044 2792.8 895.639 2796.11 900.012 2799.43 904.385 2801.74 909.347 2803.05 914.898 2804.35 920.448 2805 928.396 2805 938.741L2805 1022 2769.58 1022 2769.58 953.626C2769.58 939.161 2768.83 929.805 2767.32 925.558 2765.8 921.311 2763.35 918.01 2759.94 915.655 2756.54 913.3 2752.44 912.122 2747.66 912.122 2741.52 912.122 2736.02 913.805 2731.14 917.169 2726.27 920.533 2722.93 924.99 2721.12 930.541 2719.32 936.091 2718.42 946.352 2718.42 961.322L2718.42 1022 2683 1022 2683 888.028 2715.89 888.028 2715.89 907.707C2727.57 892.569 2742.28 885 2760.01 885Z" fill="#000000" fill-rule="evenodd" fill-opacity="1"/><path d="M2889.65 885C2906.26 885 2919.95 892.261 2930.74 906.782L2930.74 888.022 2964 888.022 2964 1008.01C2964 1023.79 2962.69 1035.58 2960.08 1043.39 2957.47 1051.2 2953.8 1057.32 2949.08 1061.77 2944.36 1066.22 2938.06 1069.7 2930.18 1072.22 2922.29 1074.74 2912.33 1076 2900.27 1076 2877.51 1076 2861.37 1072.12 2851.84 1064.35 2842.32 1056.59 2837.55 1046.75 2837.55 1034.83 2837.55 1033.65 2837.59 1032.23 2837.68 1030.55L2878.27 1035.46C2878.94 1040.16 2880.5 1043.39 2882.95 1045.15 2886.32 1047.67 2891.63 1048.93 2898.88 1048.93 2908.15 1048.93 2915.11 1047.54 2919.74 1044.78 2922.86 1042.93 2925.22 1039.95 2926.82 1035.84 2927.92 1032.9 2928.47 1027.48 2928.47 1019.59L2928.47 1000.08C2917.85 1014.52 2904.44 1021.73 2888.26 1021.73 2870.22 1021.73 2855.93 1014.14 2845.39 998.945 2837.13 986.942 2833 972.001 2833 954.123 2833 931.711 2838.42 914.588 2849.25 902.753 2860.08 890.918 2873.55 885 2889.65 885ZM2898.75 912.07C2890.24 912.07 2883.22 915.365 2877.7 921.954 2872.18 928.543 2869.42 938.594 2869.42 952.108 2869.42 966.294 2872.18 976.681 2877.7 983.27 2883.22 989.859 2890.03 993.154 2898.12 993.154 2906.8 993.154 2914.14 989.775 2920.12 983.018 2926.11 976.261 2929.1 966.252 2929.1 952.99 2929.1 939.14 2926.23 928.857 2920.5 922.143 2914.77 915.427 2907.52 912.07 2898.75 912.07Z" fill="#000000" fill-rule="evenodd" fill-opacity="1"/><path d="M1992 888 2027 888 2027 1022 1992 1022 1992 888Z" fill="#000000" fill-rule="evenodd" fill-opacity="1"/><path d="M2611 888 2646 888 2646 1022 2611 1022 2611 888Z" fill="#000000" fill-rule="evenodd" fill-opacity="1"/></g></svg>